<svg width="114" height="130" viewBox="0 0 114 130" fill="none" xmlns="http://www.w3.org/2000/svg">
<path d="M63.309 16.8999C73.3139 18.0515 82.5267 21.8124 90.2527 27.4781L98.1778 18.6492L107.279 26.827L99.2857 35.7289C108.115 45.7289 113.474 58.8678 113.474 73.2605C113.474 104.592 88.0709 130 56.7396 130C25.4033 130 0 104.592 0 73.2605C0 44.1205 22.1186 19.6744 51.0739 16.8027V11.2779H36.9242V0H77.4636V11.2779H63.309V16.8999ZM50.6851 85.5685C63.1778 94.9368 77.415 75.9378 64.9223 66.5743C60.7143 63.4111 38.7366 58.4062 31.8416 56.6132C35.4956 62.7211 46.4723 82.4247 50.6851 85.5685ZM87.9252 42.07C79.9465 34.0962 68.9164 29.1545 56.7396 29.1545C32.3761 29.1545 12.6336 48.897 12.6336 73.2605C12.6336 97.619 32.3761 117.362 56.7396 117.362C81.0982 117.362 100.841 97.619 100.841 73.2605C100.841 61.0787 95.9038 50.0535 87.9252 42.07Z" fill="white"/>
</svg>
